<mxfile host="app.diagrams.net" agent="Mozilla/5.0 (Windows NT 10.0; Win64; x64) AppleWebKit/537.36 (KHTML, like Gecko) Chrome/134.0.0.0 Safari/537.36" version="28.2.5">
  <diagram name="第 1 页" id="7WK_-XKtYCkjlxvpA3ig">
    <mxGraphModel dx="1720" dy="1085" grid="1" gridSize="10" guides="1" tooltips="1" connect="1" arrows="1" fold="1" page="1" pageScale="1" pageWidth="827" pageHeight="1169" math="0" shadow="0">
      <root>
        <mxCell id="0" />
        <mxCell id="1" parent="0" />
        <mxCell id="cloHeDUrJl45HhC-tWBw-1" value="" style="rounded=0;whiteSpace=wrap;html=1;" vertex="1" parent="1">
          <mxGeometry x="20" y="490" width="120" height="60" as="geometry" />
        </mxCell>
        <mxCell id="cloHeDUrJl45HhC-tWBw-2" value="" style="rounded=0;whiteSpace=wrap;html=1;" vertex="1" parent="1">
          <mxGeometry x="270" y="223.75" width="530" height="656.25" as="geometry" />
        </mxCell>
        <mxCell id="cloHeDUrJl45HhC-tWBw-5" value="" style="rounded=0;whiteSpace=wrap;html=1;rotation=90;fontSize=29;labelPosition=center;verticalLabelPosition=middle;align=center;verticalAlign=middle;textDirection=rtl;" vertex="1" parent="1">
          <mxGeometry x="410" y="470" width="550" height="180" as="geometry" />
        </mxCell>
        <mxCell id="cloHeDUrJl45HhC-tWBw-6" value="&lt;font&gt;用户空间&lt;/font&gt;" style="rounded=1;whiteSpace=wrap;html=1;fontSize=21;" vertex="1" parent="1">
          <mxGeometry x="300" y="285" width="180" height="555" as="geometry" />
        </mxCell>
        <mxCell id="cloHeDUrJl45HhC-tWBw-7" value="tty subsystem" style="rounded=1;whiteSpace=wrap;html=1;fontSize=23;" vertex="1" parent="1">
          <mxGeometry x="620" y="645" width="150" height="60" as="geometry" />
        </mxCell>
        <mxCell id="cloHeDUrJl45HhC-tWBw-16" value="&lt;font style=&quot;font-size: 23px;&quot;&gt;shell&lt;/font&gt;" style="rounded=1;whiteSpace=wrap;html=1;" vertex="1" parent="1">
          <mxGeometry x="335" y="620" width="115" height="110" as="geometry" />
        </mxCell>
        <mxCell id="cloHeDUrJl45HhC-tWBw-20" value="" style="rounded=0;whiteSpace=wrap;html=1;" vertex="1" parent="1">
          <mxGeometry x="20" y="580" width="120" height="60" as="geometry" />
        </mxCell>
        <mxCell id="cloHeDUrJl45HhC-tWBw-21" value="" style="rounded=0;whiteSpace=wrap;html=1;" vertex="1" parent="1">
          <mxGeometry x="20" y="400" width="120" height="60" as="geometry" />
        </mxCell>
        <mxCell id="cloHeDUrJl45HhC-tWBw-23" value="" style="endArrow=classic;startArrow=classic;html=1;rounded=0;" edge="1" parent="1" target="cloHeDUrJl45HhC-tWBw-7">
          <mxGeometry width="50" height="50" relative="1" as="geometry">
            <mxPoint x="140" y="600" as="sourcePoint" />
            <mxPoint x="280" y="970" as="targetPoint" />
            <Array as="points">
              <mxPoint x="240" y="920" />
              <mxPoint x="440" y="920" />
            </Array>
          </mxGeometry>
        </mxCell>
        <mxCell id="cloHeDUrJl45HhC-tWBw-24" value="" style="endArrow=classic;html=1;rounded=0;entryX=1;entryY=0.5;entryDx=0;entryDy=0;" edge="1" parent="1" target="cloHeDUrJl45HhC-tWBw-1">
          <mxGeometry width="50" height="50" relative="1" as="geometry">
            <mxPoint x="240" y="920" as="sourcePoint" />
            <mxPoint x="160" y="930" as="targetPoint" />
          </mxGeometry>
        </mxCell>
        <mxCell id="cloHeDUrJl45HhC-tWBw-25" value="" style="endArrow=classic;html=1;rounded=0;entryX=1;entryY=0.75;entryDx=0;entryDy=0;" edge="1" parent="1" target="cloHeDUrJl45HhC-tWBw-21">
          <mxGeometry width="50" height="50" relative="1" as="geometry">
            <mxPoint x="240" y="920" as="sourcePoint" />
            <mxPoint x="90" y="920" as="targetPoint" />
          </mxGeometry>
        </mxCell>
        <mxCell id="cloHeDUrJl45HhC-tWBw-27" value="kernerl" style="text;strokeColor=none;fillColor=none;align=center;verticalAlign=middle;spacingLeft=4;spacingRight=4;overflow=hidden;points=[[0,0.5],[1,0.5]];portConstraint=eastwest;rotatable=0;whiteSpace=wrap;html=1;labelPosition=center;verticalLabelPosition=middle;fontSize=24;" vertex="1" parent="1">
          <mxGeometry x="630" y="415" width="100" height="35" as="geometry" />
        </mxCell>
        <mxCell id="cloHeDUrJl45HhC-tWBw-28" value="其它程序" style="rounded=1;whiteSpace=wrap;html=1;fontSize=21;" vertex="1" parent="1">
          <mxGeometry x="335" y="410" width="120" height="60" as="geometry" />
        </mxCell>
        <mxCell id="cloHeDUrJl45HhC-tWBw-29" value="" style="endArrow=classic;html=1;rounded=0;entryX=0.287;entryY=0.999;entryDx=0;entryDy=0;exitX=1;exitY=0.5;exitDx=0;exitDy=0;entryPerimeter=0;" edge="1" parent="1" source="cloHeDUrJl45HhC-tWBw-28" target="cloHeDUrJl45HhC-tWBw-5">
          <mxGeometry width="50" height="50" relative="1" as="geometry">
            <mxPoint x="455" y="447.5" as="sourcePoint" />
            <mxPoint x="595" y="430" as="targetPoint" />
          </mxGeometry>
        </mxCell>
        <mxCell id="cloHeDUrJl45HhC-tWBw-30" value="系统调用" style="text;html=1;align=center;verticalAlign=middle;whiteSpace=wrap;rounded=0;rotation=-10;fontSize=14;" vertex="1" parent="1">
          <mxGeometry x="505" y="400" width="60" height="30" as="geometry" />
        </mxCell>
        <mxCell id="cloHeDUrJl45HhC-tWBw-32" value="tty终端" style="text;html=1;align=center;verticalAlign=middle;whiteSpace=wrap;rounded=0;fontSize=20;" vertex="1" parent="1">
          <mxGeometry x="40" y="415" width="80" height="30" as="geometry" />
        </mxCell>
        <mxCell id="cloHeDUrJl45HhC-tWBw-33" value="tty终端" style="text;html=1;align=center;verticalAlign=middle;whiteSpace=wrap;rounded=0;fontSize=20;" vertex="1" parent="1">
          <mxGeometry x="40" y="505" width="80" height="30" as="geometry" />
        </mxCell>
        <mxCell id="cloHeDUrJl45HhC-tWBw-34" value="tty终端" style="text;html=1;align=center;verticalAlign=middle;whiteSpace=wrap;rounded=0;fontSize=20;" vertex="1" parent="1">
          <mxGeometry x="40" y="595" width="80" height="30" as="geometry" />
        </mxCell>
        <mxCell id="cloHeDUrJl45HhC-tWBw-36" value="tty终端" style="text;html=1;align=center;verticalAlign=middle;whiteSpace=wrap;rounded=0;fontSize=20;" vertex="1" parent="1">
          <mxGeometry x="40" y="705" width="80" height="30" as="geometry" />
        </mxCell>
        <mxCell id="cloHeDUrJl45HhC-tWBw-37" value="" style="rounded=0;whiteSpace=wrap;html=1;" vertex="1" parent="1">
          <mxGeometry x="20" y="670" width="120" height="60" as="geometry" />
        </mxCell>
        <mxCell id="cloHeDUrJl45HhC-tWBw-38" value="虚拟终端" style="text;html=1;align=center;verticalAlign=middle;whiteSpace=wrap;rounded=0;fontSize=18;" vertex="1" parent="1">
          <mxGeometry x="40" y="685" width="80" height="30" as="geometry" />
        </mxCell>
        <mxCell id="cloHeDUrJl45HhC-tWBw-39" value="" style="endArrow=classic;html=1;rounded=0;entryX=0.996;entryY=0.414;entryDx=0;entryDy=0;entryPerimeter=0;" edge="1" parent="1" target="cloHeDUrJl45HhC-tWBw-37">
          <mxGeometry width="50" height="50" relative="1" as="geometry">
            <mxPoint x="240" y="920" as="sourcePoint" />
            <mxPoint x="140" y="710" as="targetPoint" />
          </mxGeometry>
        </mxCell>
        <mxCell id="cloHeDUrJl45HhC-tWBw-41" value="shell指令代码" style="text;html=1;align=center;verticalAlign=middle;whiteSpace=wrap;rounded=0;" vertex="1" parent="1">
          <mxGeometry x="280" y="890" width="80" height="30" as="geometry" />
        </mxCell>
        <mxCell id="cloHeDUrJl45HhC-tWBw-42" value="" style="endArrow=classic;startArrow=classic;html=1;rounded=0;entryX=0;entryY=0.5;entryDx=0;entryDy=0;exitX=1;exitY=0.5;exitDx=0;exitDy=0;" edge="1" parent="1" source="cloHeDUrJl45HhC-tWBw-16" target="cloHeDUrJl45HhC-tWBw-7">
          <mxGeometry width="50" height="50" relative="1" as="geometry">
            <mxPoint x="490" y="770" as="sourcePoint" />
            <mxPoint x="540" y="720" as="targetPoint" />
          </mxGeometry>
        </mxCell>
        <mxCell id="cloHeDUrJl45HhC-tWBw-46" value="" style="endArrow=classic;startArrow=classic;html=1;rounded=0;exitX=0.548;exitY=0.994;exitDx=0;exitDy=0;exitPerimeter=0;" edge="1" parent="1" source="cloHeDUrJl45HhC-tWBw-5" target="cloHeDUrJl45HhC-tWBw-16">
          <mxGeometry width="50" height="50" relative="1" as="geometry">
            <mxPoint x="550.26" y="535" as="sourcePoint" />
            <mxPoint x="519.7397687861269" y="755" as="targetPoint" />
          </mxGeometry>
        </mxCell>
      </root>
    </mxGraphModel>
  </diagram>
</mxfile>
